<?xml version="1.0" standalone="no"?>
<!DOCTYPE svg PUBLIC "-//W3C//DTD SVG 20010904//EN"
        "http://www.w3.org/TR/2001/REC-SVG-20010904/DTD/svg10.dtd">
<svg version="1.0" xmlns="http://www.w3.org/2000/svg"
     width="131.000000pt" height="131.000000pt" viewBox="0 0 131.000000 131.000000"
     preserveAspectRatio="xMidYMid meet">
    <metadata>
        Created by potrace 1.11, written by Peter Selinger 2001-2013
    </metadata>
    <g transform="translate(0.000000,131.000000) scale(0.100000,-0.100000)"
       fill="#000000" stroke="none">
        <path d="M598 919 c-13 -7 -18 -23 -18 -60 0 -56 13 -89 35 -89 12 0 15 -21
15 -119 0 -119 0 -119 -25 -123 -24 -5 -25 -3 -25 38 0 23 -3 45 -7 47 -5 3
-32 6 -62 8 l-54 4 -14 -42 c-11 -31 -20 -43 -34 -43 -17 0 -19 8 -19 63 0 34
3 85 6 114 6 46 10 53 36 62 28 10 29 12 26 73 l-3 63 -130 0 -130 0 -3 -68
c-3 -62 -1 -69 18 -74 19 -5 20 -13 20 -119 0 -113 0 -115 -25 -124 -25 -9
-26 -13 -23 -72 l3 -63 195 0 194 0 7 25 6 25 4 -25 c4 -24 7 -25 114 -32 61
-4 116 -5 123 -3 9 3 12 23 10 67 -3 57 -5 63 -25 66 -18 3 -23 10 -23 31 0
16 -3 44 -6 62 -4 28 -3 31 6 17 13 -21 89 -25 108 -6 9 9 12 1 12 -38 0 -42
-4 -51 -22 -59 -20 -9 -23 -17 -23 -70 l0 -60 130 0 130 0 3 53 c3 57 -8 82
-39 82 -18 0 -19 9 -19 119 0 116 1 120 23 123 21 3 22 8 22 78 l0 75 -91 3
-91 3 -29 -33 c-16 -19 -36 -44 -44 -56 -15 -23 -15 -23 -50 30 l-35 53 -80 2
c-44 2 -88 -2 -97 -8z m-174 -25 c11 -4 16 -19 16 -50 0 -41 -2 -45 -30 -50
-28 -6 -30 -10 -30 -49 0 -23 -3 -83 -6 -133 l-7 -92 39 0 c39 0 40 1 52 46
l12 46 43 -7 c23 -4 43 -8 44 -9 1 -1 5 -43 9 -94 l7 -92 -187 0 -186 0 0 55
c0 52 1 55 25 55 l25 0 0 135 c0 128 -1 135 -20 135 -17 0 -20 7 -20 50 l0 49
58 4 c112 7 141 7 156 1z m381 -55 c20 -33 40 -57 44 -52 4 4 24 32 45 61 l38
52 84 0 84 0 0 -55 c0 -52 -1 -55 -25 -55 l-25 0 0 -102 c0 -144 7 -178 35
-178 19 0 23 -7 29 -47 3 -25 4 -48 3 -50 -2 -2 -55 -4 -118 -6 l-114 -2 -3
53 c-3 50 -2 52 22 52 l26 0 0 97 0 98 -25 -36 c-17 -26 -33 -38 -55 -41 -28
-4 -35 0 -57 34 -14 21 -26 37 -27 36 -1 -2 0 -47 2 -100 3 -96 4 -98 28 -98
20 0 24 -5 24 -27 0 -16 3 -38 6 -50 6 -22 3 -23 -48 -23 -30 0 -83 3 -117 6
l-61 7 0 48 c0 46 2 49 25 49 l25 0 0 139 c0 137 0 140 -22 143 -20 3 -23 10
-26 56 l-3 52 84 0 84 0 38 -61z"/>
    </g>
</svg>
